<svg width="102" height="102" viewBox="0 0 102 102" fill="none" xmlns="http://www.w3.org/2000/svg">
<g clip-path="url(#clip0_2203_691)">
<path d="M51.0001 0.00012207C22.9116 0.00012207 0.00012207 22.9166 0.00012207 51C0.00012207 79.0834 22.9116 102 51.0001 102C79.0886 102 102 79.0834 102 51C102 22.9166 79.0886 0.00012207 51.0001 0.00012207ZM51.0001 13.5959C71.7313 13.5959 88.3958 30.2592 88.3958 51C88.3958 71.7408 71.7313 88.4041 51.0001 88.4041C30.269 88.4041 13.6041 71.7408 13.6041 51C13.6041 30.2592 30.269 13.5959 51.0001 13.5959Z" fill="white"/>
<path d="M51 65.28C46.3861 65.28 42.5 69.1662 42.5 73.78C42.5 78.3939 46.3861 82.28 51 82.28C55.6139 82.28 59.5 78.3939 59.5 73.78C59.5 69.1662 55.6139 65.28 51 65.28Z" fill="white"/>
<path d="M47.2748 18.9356C40.7528 20.3734 35.5176 25.5958 34.2191 32.3141C34.0496 33.1909 34.0544 34.0925 34.2334 34.9675C34.4124 35.8424 34.7619 36.6735 35.2621 37.4133C35.7622 38.1531 36.4032 38.7872 37.1484 39.2793C37.8937 39.7713 38.7285 40.1118 39.6053 40.2813C40.4821 40.4507 41.3837 40.4458 42.2585 40.2668C43.1334 40.0878 43.9645 39.7383 44.7043 39.2381C45.444 38.738 46.0781 38.097 46.5701 37.3518C47.0622 36.6066 47.4027 35.7718 47.5721 34.8951C47.8772 33.3168 49.1507 32.2166 50.7565 32.1438C52.3623 32.071 53.7298 33.0516 54.1763 34.5958C54.6229 36.1399 53.9896 37.6993 52.5928 38.4948C51.9991 38.8484 51.4627 39.2904 51.0021 39.8056C51.0019 39.8058 51.0017 39.806 51.0014 39.8061C45.3873 43.3777 42.3613 49.9452 43.2943 56.5334C43.5472 58.319 44.4991 59.931 45.9405 61.0148C47.3819 62.0986 49.1948 62.5654 50.9804 62.3126C51.8646 62.1874 52.7155 61.8893 53.4845 61.4353C54.2535 60.9812 54.9255 60.3802 55.4621 59.6664C55.9988 58.9526 56.3897 58.1401 56.6123 57.2753C56.835 56.4105 56.8852 55.5103 56.7599 54.6261C56.5704 53.2883 57.1612 52.006 58.3013 51.2808C58.825 50.9465 59.3004 50.542 59.7143 50.0785C66.2427 46.1235 69.3712 38.184 67.2413 30.8181C65.069 23.3056 57.9532 18.2036 50.141 18.5575C49.1645 18.6018 48.2065 18.7302 47.2748 18.9356Z" fill="white"/>
</g>
<defs>
<clipPath id="clip0_2203_691">
<rect width="102" height="102" fill="white"/>
</clipPath>
</defs>
</svg>
